<?xml version="1.0" encoding="iso-8859-1"?>
<!-- Generator: Adobe Illustrator 18.0.0, SVG Export Plug-In . SVG Version: 6.00 Build 0)  -->
<!DOCTYPE svg PUBLIC "-//W3C//DTD SVG 1.1//EN" "http://www.w3.org/Graphics/SVG/1.1/DTD/svg11.dtd">
<svg version="1.1" id="Capa_1" xmlns="http://www.w3.org/2000/svg" xmlns:xlink="http://www.w3.org/1999/xlink" x="0px" y="0px"
	 viewBox="0 0 346.118 346.118" style="enable-background:new 0 0 346.118 346.118;" xml:space="preserve">
<g>
	<path d="M46.324,263.168c2.761,0,5-2.239,5-5v-3.811c0-2.761-2.239-5-5-5s-5,2.239-5,5v3.811
		C41.324,260.93,43.563,263.168,46.324,263.168z"/>
	<path d="M254.572,336.118H51.324v-63.18c0-2.761-2.239-5-5-5s-5,2.239-5,5v68.18c0,2.761,2.239,5,5,5h208.248c2.762,0,5-2.239,5-5
		C259.572,338.356,257.334,336.118,254.572,336.118z"/>
	<path d="M299.794,146h-17.527v-36.793C282.266,48.99,233.276,0,173.059,0C112.842,0,63.852,48.99,63.852,109.207V146H46.324
		c-2.761,0-5,2.239-5,5v87.428c0,2.761,2.239,5,5,5s5-2.239,5-5V156h243.47v180.117h-23.35c-2.762,0-5,2.239-5,5
		c0,2.761,2.238,5,5,5h28.35c2.762,0,5-2.239,5-5V151C304.794,148.239,302.556,146,299.794,146z M73.852,109.207
		C73.852,54.504,118.356,10,173.059,10c54.704,0,99.208,44.504,99.208,99.207v36.559h-18.168v-36.559
		c0-14.305-3.792-28.375-10.967-40.689c-1.39-2.385-4.45-3.193-6.838-1.803c-2.386,1.39-3.192,4.452-1.803,6.837
		c6.285,10.787,9.607,23.117,9.607,35.655V146H102.019v-36.793c0-39.171,31.868-71.04,71.04-71.04
		c18.325,0,35.731,6.983,49.013,19.664c1.997,1.907,5.161,1.833,7.068-0.164c1.907-1.998,1.834-5.162-0.163-7.069
		c-15.151-14.464-35.01-22.43-55.918-22.43c-44.686,0-81.04,36.354-81.04,81.04V146H73.852V109.207z"/>
	<path d="M74.221,197.538c8.829,0,16.011-7.183,16.011-16.011c0-8.829-7.183-16.011-16.011-16.011
		c-8.828,0-16.011,7.183-16.011,16.011C58.21,190.355,65.393,197.538,74.221,197.538z M74.221,175.516
		c3.314,0,6.011,2.697,6.011,6.011c0,3.314-2.697,6.011-6.011,6.011c-3.314,0-6.011-2.697-6.011-6.011
		C68.21,178.212,70.906,175.516,74.221,175.516z"/>
	<path d="M271.897,197.538c8.828,0,16.011-7.183,16.011-16.011c0-8.829-7.183-16.011-16.011-16.011
		c-8.829,0-16.012,7.183-16.012,16.011C255.886,190.355,263.068,197.538,271.897,197.538z M271.897,175.516
		c3.314,0,6.011,2.697,6.011,6.011c0,3.314-2.696,6.011-6.011,6.011c-3.315,0-6.012-2.697-6.012-6.011
		C265.885,178.212,268.583,175.516,271.897,175.516z"/>
	<path d="M74.221,326.602c8.829,0,16.011-7.183,16.011-16.011c0-8.829-7.183-16.011-16.011-16.011
		c-8.828,0-16.011,7.183-16.011,16.011C58.21,319.42,65.393,326.602,74.221,326.602z M74.221,304.58
		c3.314,0,6.011,2.697,6.011,6.011c0,3.315-2.697,6.011-6.011,6.011c-3.314,0-6.011-2.697-6.011-6.011
		C68.21,307.277,70.906,304.58,74.221,304.58z"/>
	<path d="M287.908,310.591c0-8.829-7.183-16.011-16.011-16.011c-2.762,0-5,2.239-5,5c0,2.761,2.238,5,5,5
		c3.314,0,6.011,2.697,6.011,6.011c0,3.315-2.696,6.011-6.011,6.011c-3.315,0-6.012-2.697-6.012-6.011c0-2.761-2.238-5-5-5
		c-2.762,0-5,2.239-5,5c0,8.829,7.183,16.011,16.012,16.011C280.725,326.602,287.908,319.42,287.908,310.591z"/>
	<path d="M184.736,249.337c-1.4,0.926-2.243,2.493-2.243,4.171v28.202h-18.868v-4.306c0-2.761-2.239-5-5-5s-5,2.239-5,5v9.306
		c0,2.761,2.239,5,5,5h28.868c2.762,0,5-2.239,5-5v-30.659c7.425-5.903,11.783-14.845,11.783-24.426
		c0-2.605-0.322-5.196-0.958-7.701c-0.68-2.677-3.396-4.296-6.077-3.616c-2.676,0.679-4.295,3.4-3.616,6.076
		c0.433,1.702,0.651,3.465,0.651,5.241C194.276,238.767,190.71,245.389,184.736,249.337z"/>
	<path d="M189.535,205.106c-4.939-3.073-10.636-4.698-16.476-4.698c-17.213,0-31.217,14.004-31.217,31.217
		c0,9.581,4.358,18.523,11.783,24.427v6.933c0,2.761,2.239,5,5,5s5-2.239,5-5v-9.477c0-1.679-0.842-3.246-2.243-4.171
		c-5.973-3.948-9.539-10.569-9.539-17.712c0-11.699,9.518-21.217,21.217-21.217c3.971,0,7.841,1.103,11.193,3.188
		c2.344,1.46,5.428,0.742,6.887-1.604C192.597,209.648,191.88,206.565,189.535,205.106z"/>
</g>
<g>
</g>
<g>
</g>
<g>
</g>
<g>
</g>
<g>
</g>
<g>
</g>
<g>
</g>
<g>
</g>
<g>
</g>
<g>
</g>
<g>
</g>
<g>
</g>
<g>
</g>
<g>
</g>
<g>
</g>
</svg>
